# xmcd
#
# Track frame offsets:
#	150
#	19897
#	34250
#	50780
#	73775
#	94462
#	104782
#	128650
#	147265
#	169005
#	197127
#
# Disc length: 2878 seconds
#
# Revision: 0
# Processed by: cddbd v1.5.1PL2 Copyright (c) Steve Scherf et al.
# Submitted via: EasyCDDAExtractor 8.2.1.1
#
DISCID=aa0b3c0b
DTITLE=Toad - B.U.F.O. (1970 Acetate)
DYEAR=2003
DGENRE=Progressive Rock
TTITLE0=Pig's Walk (Alternate Version)
TTITLE1=Pig's Walk - Reprise (Alternate Version)
TTITLE2=Animal's World (Alternate Version)
TTITLE3=Animal's World (Alternate Version)
TTITLE4=No Time
TTITLE5=Walking In The Moonlight
TTITLE6=Dream Girl
TTITLE7=A Life That Ain't Worth Livin'
TTITLE8=Tank
TTITLE9=Feelin' Alright
TTITLE10=Lone Wolf Rocks
EXTD=
EXTT0=
EXTT1=
EXTT2=
EXTT3=
EXTT4=
EXTT5=
EXTT6=
EXTT7=
EXTT8=
EXTT9=
EXTT10=
PLAYORDER=
